<?xml version="1.0" encoding="UTF-8" standalone="no"?>
<svg width="968px" height="167px" viewBox="0 0 968 167" version="1.1" xmlns="http://www.w3.org/2000/svg" xmlns:xlink="http://www.w3.org/1999/xlink">
    <!-- Generator: Sketch 39.1 (31720) - http://www.bohemiancoding.com/sketch -->
    <title>logo-gradient</title>
    <desc>Created with Sketch.</desc>
    <defs>
        <linearGradient x1="-119.693114%" y1="50.0183661%" x2="401.407321%" y2="50.0183661%" id="linearGradient-1">
            <stop stop-color="#2178C4" offset="0.1322115%"></stop>
            <stop stop-color="#473FBE" offset="100%"></stop>
        </linearGradient>
        <linearGradient x1="-18.1560194%" y1="49.9840052%" x2="536.969979%" y2="49.9840052%" id="linearGradient-2">
            <stop stop-color="#2178C4" offset="0.1322115%"></stop>
            <stop stop-color="#473FBE" offset="100%"></stop>
        </linearGradient>
        <linearGradient x1="-492.001748%" y1="50.0181054%" x2="72.5317115%" y2="50.0181054%" id="linearGradient-3">
            <stop stop-color="#2178C4" offset="0.1322115%"></stop>
            <stop stop-color="#473FBE" offset="100%"></stop>
        </linearGradient>
        <linearGradient x1="-254.708532%" y1="49.976108%" x2="299.443029%" y2="49.976108%" id="linearGradient-4">
            <stop stop-color="#2178C4" offset="0.1322115%"></stop>
            <stop stop-color="#473FBE" offset="100%"></stop>
        </linearGradient>
        <linearGradient x1="-671.188963%" y1="50.0112729%" x2="-51.4474176%" y2="50.0112729%" id="linearGradient-5">
            <stop stop-color="#2178C4" offset="0.1322115%"></stop>
            <stop stop-color="#473FBE" offset="100%"></stop>
        </linearGradient>
        <linearGradient x1="-418.361314%" y1="49.9991585%" x2="201.601034%" y2="49.9991585%" id="linearGradient-6">
            <stop stop-color="#2178C4" offset="0.1322115%"></stop>
            <stop stop-color="#473FBE" offset="100%"></stop>
        </linearGradient>
    </defs>
    <g id="Page-1" stroke="none" stroke-width="1" fill="none" fill-rule="evenodd">
        <g id="logo-gradient">
            <g id="Layer_1">
                <g id="XMLID_37_">
                    <path d="M157.3,82.4 C157.6,72.6 160.1,61.2 163.5,50.2 C172.5,20.7 197,2.2 227.9,1.5 C238.9,1.2 250.2,2.2 260.9,4.9 C283.7,10.5 298.1,26.2 305,48.2 C312.4,71.9 312.2,96.1 304.7,119.8 C296.8,144.8 279.4,160.2 253.5,163.9 C240,165.8 225.8,165.8 212.3,163.7 C183.2,159.2 167.6,139.7 161.4,112 C159.3,103 157,93.8 157.3,82.4 L157.3,82.4 Z M263,84 C263,76 262.7,71.5 261.8,65.5 C259.5,49.9 249.5,40.1 235.3,39.2 C222.4,38.3 211.5,46.6 207.4,61.4 C202.9,77.2 203.1,93.2 208.1,108.9 C212.1,121.4 220,127.3 232.4,128 C243.5,128.6 253.7,122.9 258.1,111.5 C258.1,111.5 263,101 263,84 L263,84 Z" id="XMLID_43_" fill="url(#linearGradient-1)"></path>
                    <path d="M66.3,94.5 C59,102.8 52.3,110.1 46,117.7 C44.8,119.2 44.8,122 44.8,124.2 C44.7,134.2 44.5,144.2 44.8,154.2 C45,160 42.5,162.8 37,162.9 C27.5,163 17.9,163.1 8.4,162.9 C2.6,162.8 0.1,159.7 0.1,153.7 C0.2,105.5 0.2,57.3 0.1,9.1 C0.1,3.1 2.7,1 8.4,1.1 C18.2,1.3 28,1.3 37.7,1.1 C43.1,1 44.9,3.4 44.8,8.5 C44.6,24.9 44.7,41.2 44.7,59.5 C50.7,52.3 55.7,46.5 60.7,40.5 C69.9,29.5 79,18.5 88.1,7.4 C91.6,3 95.8,0.9 101.6,1.1 C112.7,1.5 123.9,1.1 135,1.3 C137,1.3 140.6,2.3 140.8,3.2 C141.1,5.3 140.3,8.1 138.9,9.8 C127.2,24 115.4,38.2 103.2,51.9 C99,56.6 98.4,60.3 101.2,66.2 C114.8,94.1 127.9,122.4 141.2,150.5 C146.1,160.9 144.7,163 132.9,163.1 C124.3,163.1 115.6,163 107,163.1 C100.1,163.2 95.7,160.5 92.9,153.8 C85.6,136.4 77.7,119.3 70.1,102.1 C69,99.9 67.9,97.7 66.3,94.5 L66.3,94.5 Z" id="XMLID_42_" fill="url(#linearGradient-2)"></path>
                    <path d="M810.8,74 L810.8,132.6 C810.8,135.5 810.7,138.5 810.2,141.4 C808.1,156 803.9,161 789.4,163.2 C765.3,166.9 741,167.8 716.9,163.1 C690.2,157.8 673.4,140.5 671.3,113.4 C669.5,89.7 670,65.8 669.6,41.9 C669.4,31.2 669.8,20.5 669.5,9.9 C669.3,3.6 671.2,0.7 678,1.1 C686.8,1.5 695.7,1.2 704.6,1.2 C712.4,1.3 714.2,3 714.2,10.9 C714.3,38.2 714.2,65.5 714.3,92.7 C714.3,98.3 714.8,104.1 715.8,109.6 C717.8,120.5 725.4,127.3 736.5,128 C743.7,128.5 751,127.9 758.3,128.2 C764,128.5 765.8,126.1 765.7,120.6 C765.5,93.3 765.6,66 765.6,38.8 C765.6,29 765.7,19.3 765.6,9.5 C765.6,3.6 767.8,0.8 774.2,1.1 C783,1.5 791.9,1.2 800.8,1.2 C809,1.2 810.7,2.9 810.8,11.3 C810.9,32.2 810.8,53.1 810.8,74 L810.8,74 L810.8,74 Z" id="XMLID_41_" fill="url(#linearGradient-3)"></path>
                    <path d="M341,89.7 L341,28.4 C341,12.9 347,5.8 362.5,4 C385.5,1.3 408.5,-0.5 431.6,3.8 C466.9,10.3 482,33.5 483.6,65 C485.1,93.8 484.6,122.6 484.8,151.5 C484.9,161.5 483.3,163 473.5,163.1 C465.5,163.2 457.6,163.2 449.6,163.1 C441.3,162.9 439.7,161.2 439.6,152.9 C439.4,125.4 439.5,97.9 439.2,70.4 C439,48.7 429,39.1 407.1,39 L394.8,39 C385.8,39.1 385.5,39.4 385.5,48.2 L385.5,151.8 C385.5,161.8 384.3,163 374.1,163.1 C365.9,163.2 357.7,163.1 349.6,163 C343.6,162.9 340.7,160.4 340.8,153.8 C341.2,132.4 341.1,111 341,89.7 L341,89.7 Z" id="XMLID_40_" fill="url(#linearGradient-4)"></path>
                    <path d="M908.2,166.3 C882.9,165.2 863,162.5 844.6,153.2 C838.7,150.2 836.5,146.7 839.8,140.3 C842.6,134.9 844.8,129.1 847,123.4 C849.2,117.8 852.4,116.4 858.2,118.8 C872.8,124.8 887.8,128.8 903.8,128.5 C906.5,128.4 909.8,129 911.8,127.6 C915.2,125.4 919.3,122.4 920.2,118.9 C921,115.9 918.7,110.7 916,108.5 C911.6,104.8 905.8,102.7 900.6,100.1 C888.6,94.3 876,89.4 864.5,82.7 C834.1,64.7 841.5,22.6 868.4,8.9 C882.7,1.6 898,-0.3 913.4,1.6 C927,3.3 940.3,7.2 953.7,10.5 C959.9,12 961.3,16.2 958.7,22 C956.6,26.8 954.7,31.6 953.2,36.6 C951.2,43.1 947.8,44.6 941,42.8 C929.4,39.9 917.5,38.2 905.7,36.4 C903.2,36 900.2,36.7 897.7,37.6 C889.3,40.6 887.5,49.8 894.7,55.2 C898.8,58.3 903.7,60.3 908.5,62.5 C919.3,67.3 930.5,71.1 940.9,76.7 C963.8,89.1 972,110.4 964.1,134.2 C959.2,149 948,157.2 934,161.4 C924.1,164.3 913.6,165.3 908.2,166.3 L908.2,166.3 Z" id="XMLID_39_" fill="url(#linearGradient-5)"></path>
                    <path d="M579.3,166.2 C557,165.2 537.1,162.6 518.7,153.1 C512.6,150 510.9,146.3 514.1,140.1 C516.6,135.3 518.4,130.1 520.5,125.1 C524.2,116.5 525.2,116.2 533.7,119.4 C547.8,124.6 562.1,128.8 577.4,128.4 C579.4,128.4 581.5,128.3 583.5,128.1 C588.9,127.5 593.1,124.9 594.4,119.4 C595.7,114.1 593.5,109.8 588.9,107.3 C582.3,103.8 575.4,100.9 568.7,97.6 C558.1,92.4 547.1,88 537.2,81.8 C508.9,64 515.8,22.9 541.5,9.5 C554.2,2.9 567.6,0.8 581.6,1.2 C597.3,1.7 612.7,4.3 627.4,10.2 C634.5,13 635.3,15 632.8,22.2 C630.8,27.7 628.5,33.2 626.5,38.7 C624.8,43.3 622.1,44.5 617,43.3 C604.9,40.5 592.6,38.5 580.4,36.5 C577.6,36.1 574.5,36.8 571.8,37.8 C563.3,40.9 561.6,50.2 569,55.3 C574.3,59 580.6,61.3 586.6,64 C596.1,68.3 606,71.8 615.2,76.7 C642.8,91.3 646.7,119.1 635.1,141 C627.3,155.7 612.8,161.1 597.6,164.2 C591,165.6 584.1,165.7 579.3,166.2 L579.3,166.2 Z" id="XMLID_38_" fill="url(#linearGradient-6)"></path>
                </g>
            </g>
        </g>
    </g>
</svg>