<svg xmlns="http://www.w3.org/2000/svg" viewBox="0 0 81.2 33">
    <g fill="#0D389E">
        <path d="M44.323 8.596h-2.197c-.17 0-.254.085-.254.254v5.576c0 .93-.338 1.437-1.182 1.437-.845 0-1.183-.507-1.183-1.437V8.85c0-.17-.085-.254-.254-.254h-2.197c-.168 0-.253.085-.253.254v6.168c0 1.858 1.352 3.464 3.887 3.464 2.534 0 3.97-1.521 3.97-3.464V8.85c0-.085-.168-.254-.337-.254M31.65 25.156l-1.606-.506c-.507-.17-.507-.423-.507-.592 0-.253.253-.507.676-.507.507 0 1.267.17 1.943.676a.257.257 0 0 0 .338 0l1.267-1.52a.257.257 0 0 0 0-.339c-1.014-.845-2.365-1.183-3.548-1.183-2.281 0-3.633 1.437-3.633 2.958 0 1.182.676 2.365 2.196 2.788l1.437.507c.676.253.845.422.845.676 0 .253-.254.591-.845.591-.76 0-1.69-.507-2.281-1.014a.257.257 0 0 0-.338 0l-1.268 1.69a.257.257 0 0 0 0 .338c.93.76 2.281 1.352 3.971 1.352 2.113 0 3.718-1.268 3.718-3.126-.085-1.268-.845-2.282-2.366-2.789M50.152 12.736h-1.436v-1.69h1.436c.845 0 1.099.339 1.099.846 0 .506-.254.844-1.099.844m2.197 1.944c1.183-.592 1.775-1.437 1.775-2.788 0-1.69-1.352-3.211-3.718-3.211h-4.225c-.169 0-.253.169-.253.253v9.125c0 .17.084.254.253.254h2.282c.169 0 .253-.085.253-.254v-2.957h.845l1.605 2.957c.085.085.254.254.338.254h2.62c.169 0 .169-.085.084-.254l-1.859-3.38zM80.231 23.72c.169 0 .253-.084.253-.253l.423-1.86c0-.168 0-.337-.254-.337h-6.59c-.169 0-.253.169-.253.253v9.04c0 .17.084.254.253.254h5.999c.169 0 .254-.084.254-.253l.422-1.859c0-.169 0-.338-.254-.338h-3.97V27.27h2.788c.169 0 .253-.085.253-.254l.423-2.028c0-.084 0-.253-.17-.253h-3.295V23.72h3.718zM58.77 26.677h-.844l.844-2.957.845 2.957h-.845zm1.775-5.238c0-.085-.17-.254-.254-.254H57.25c-.085 0-.254.085-.254.254l-2.788 9.21c-.084.084 0 .253.169.253h2.45c.085 0 .254-.085.254-.254l.422-1.436h2.45l.423 1.436c0 .085.169.254.253.254h2.45c.085 0 .17-.085.17-.254l-2.704-9.21zM53.448 21.27H51.25c-.17 0-.254.084-.254.253V27.1c0 .93-.338 1.436-1.182 1.436-.845 0-1.183-.507-1.183-1.436v-5.577c0-.169-.085-.253-.254-.253h-2.197c-.169 0-.253.084-.253.253v6.168c0 1.859 1.352 3.464 3.887 3.464 2.534 0 3.97-1.52 3.97-3.464v-6.168c-.084-.169-.168-.253-.337-.253M68.571 25.325h-1.436v-1.69h1.436c.76 0 1.099.339 1.099.846 0 .506-.338.844-1.099.844m2.113 1.944c1.182-.592 1.774-1.437 1.774-2.788 0-1.69-1.352-3.211-3.718-3.211h-4.224c-.17 0-.254.169-.254.253v9.125c0 .17.085.254.254.254h2.281c.169 0 .254-.085.254-.254v-2.957h.844l1.606 2.957c.084.085.253.254.338.254h2.619c.169 0 .169-.085.084-.254l-1.858-3.38zM39.676 28.536c-1.268 0-2.113-1.098-2.113-2.45s.845-2.45 2.113-2.45 2.112 1.098 2.112 2.45-.845 2.45-2.112 2.45m4.985 1.183c-.338.084-.845.253-1.521.084l.253-.253c1.268-1.352 1.69-3.464 1.014-5.238-.676-1.775-2.366-3.042-4.309-3.211-1.943-.169-3.97.845-4.9 2.535-1.014 1.774-.845 4.14.507 5.745a5.16 5.16 0 0 0 4.647 1.69l.084.084c.93.845 2.45 1.437 3.802 1.437l.507-2.62c.085-.253.085-.338-.084-.253M30.55 15.947c-1.267 0-2.112-1.098-2.112-2.45s.845-2.45 2.113-2.45c1.267 0 2.112 1.098 2.112 2.45s-.845 2.45-2.112 2.45m.422-7.435c-1.943-.17-3.97.845-4.9 2.535-1.014 1.774-.845 4.14.507 5.745 1.943 2.197 5.66 2.281 7.688.169 1.268-1.352 1.69-3.464 1.014-5.238-.591-1.775-2.366-3.042-4.309-3.211"/>
    </g>
    <path fill="#FA4778"
          d="M19.61 4.9l-.7 3.7c-.1.4-.5.7-.9.7h-6.6c-.7 0-1.3.6-1.3 1.4v.8c0 .7.6 1.4 1.3 1.4h5.5c.5 0 1 .5.8 1.1-.1.6-.7 3.5-.8 3.8 0 .3-.4.7-.9.7h-4.6c-1 0-1.2 0-1.7.7-.6.7-5.6 7-5.6 7 0 .1-.1 0-.1 0V4.8c0-.5.4-.9.9-.9h13.7c.7 0 1.2.4 1 1m1-4.6h-17c-2.3 0-3 1.8-3 2.9v27.1c0 1.3.7 1.7 1 1.9.4.2 1.3.3 2-.4 0 0 8.1-9.4 8.2-9.6.1-.2.2-.2.3-.2h5.1c2.2 0 2.6-1.5 2.8-2.4.2-.8 2.4-11.7 3.1-15.2.7-2.7 0-4.1-2.5-4.1"/>
</svg>
